<?xml version="1.0" encoding="UTF-8"?>
<svg version="1.1" xmlns="http://www.w3.org/2000/svg" width="691" height="361">
<path d="M0 0 C0 0.66 0 1.32 0 2 C0.89203125 2.25652344 1.7840625 2.51304688 2.703125 2.77734375 C7.99988758 4.74166447 11.74332842 8.36671671 16 12 C16.83015625 12.67160156 17.6603125 13.34320313 18.515625 14.03515625 C36.43158766 29.10597389 46.80807931 52.14130921 50 75 C51.82784219 97.78647764 48.50017908 118.20582127 37 138 C36.44441406 138.99257812 35.88882813 139.98515625 35.31640625 141.0078125 C29.42311742 150.92888867 21.19056691 160.01597889 12 167 C10.96746094 167.80630859 10.96746094 167.80630859 9.9140625 168.62890625 C-13.00725416 185.648555 -40.10916347 190.98869095 -68.20703125 187.4140625 C-83.4102833 185.02622546 -100.9567368 179.0432632 -112 168 C-112.9590625 167.54753906 -112.9590625 167.54753906 -113.9375 167.0859375 C-116.21890145 165.88474507 -117.33528183 164.68916314 -118.9375 162.6875 C-120.6931045 160.55538182 -122.41709689 158.58290311 -124.375 156.625 C-130.74095107 150.25904893 -135.99813062 144.09469034 -140 136 C-140.45511963 135.13459595 -140.45511963 135.13459595 -140.91943359 134.25170898 C-143.45880715 129.35486369 -145.40525158 124.42408845 -147.125 119.1875 C-147.50205078 118.09211914 -147.50205078 118.09211914 -147.88671875 116.97460938 C-154.1981221 97.99083332 -154.11997706 76.99772191 -148 58 C-147.79101074 57.32533691 -147.58202148 56.65067383 -147.36669922 55.95556641 C-143.33381473 43.20440129 -136.99872455 31.97196431 -128 22 C-127.34 22 -126.68 22 -126 22 C-125.773125 21.2575 -125.54625 20.515 -125.3125 19.75 C-123.7410439 16.4574253 -122.00004284 15.02502891 -119 13 C-118.34 13 -117.68 13 -117 13 C-116.74734375 12.39671875 -116.4946875 11.7934375 -116.234375 11.171875 C-113.95998128 7.17009364 -109.84320668 5.35464071 -106 3 C-104.56527344 2.05060547 -104.56527344 2.05060547 -103.1015625 1.08203125 C-71.58980015 -18.6414326 -32.2457472 -16.83177109 0 0 Z " fill="#14E757" transform="translate(395,95)"/>
<path d="M0 0 C0 0.66 0 1.32 0 2 C0.89203125 2.25652344 1.7840625 2.51304688 2.703125 2.77734375 C7.99988758 4.74166447 11.74332842 8.36671671 16 12 C16.83015625 12.67160156 17.6603125 13.34320313 18.515625 14.03515625 C36.43158766 29.10597389 46.80807931 52.14130921 50 75 C51.82784219 97.78647764 48.50017908 118.20582127 37 138 C36.44441406 138.99257812 35.88882813 139.98515625 35.31640625 141.0078125 C29.42311742 150.92888867 21.19056691 160.01597889 12 167 C10.96746094 167.80630859 10.96746094 167.80630859 9.9140625 168.62890625 C-13.00725416 185.648555 -40.10916347 190.98869095 -68.20703125 187.4140625 C-83.4102833 185.02622546 -100.9567368 179.0432632 -112 168 C-112.9590625 167.54753906 -112.9590625 167.54753906 -113.9375 167.0859375 C-116.21890145 165.88474507 -117.33528183 164.68916314 -118.9375 162.6875 C-120.6931045 160.55538182 -122.41709689 158.58290311 -124.375 156.625 C-130.74095107 150.25904893 -135.99813062 144.09469034 -140 136 C-140.45511963 135.13459595 -140.45511963 135.13459595 -140.91943359 134.25170898 C-143.45880715 129.35486369 -145.40525158 124.42408845 -147.125 119.1875 C-147.50205078 118.09211914 -147.50205078 118.09211914 -147.88671875 116.97460938 C-154.1981221 97.99083332 -154.11997706 76.99772191 -148 58 C-147.79101074 57.32533691 -147.58202148 56.65067383 -147.36669922 55.95556641 C-143.33381473 43.20440129 -136.99872455 31.97196431 -128 22 C-127.34 22 -126.68 22 -126 22 C-125.773125 21.2575 -125.54625 20.515 -125.3125 19.75 C-123.7410439 16.4574253 -122.00004284 15.02502891 -119 13 C-118.34 13 -117.68 13 -117 13 C-116.74734375 12.39671875 -116.4946875 11.7934375 -116.234375 11.171875 C-113.95998128 7.17009364 -109.84320668 5.35464071 -106 3 C-104.56527344 2.05060547 -104.56527344 2.05060547 -103.1015625 1.08203125 C-71.58980015 -18.6414326 -32.2457472 -16.83177109 0 0 Z M-98 17 C-98.62648438 17.38285156 -99.25296875 17.76570313 -99.8984375 18.16015625 C-103.41299916 20.36344745 -106.09710437 23.05868369 -109 26 C-109.83660156 26.81339844 -110.67320312 27.62679687 -111.53515625 28.46484375 C-115.89322638 32.72861252 -119.92302091 36.69486364 -123 42 C-123.53109375 42.82628906 -124.0621875 43.65257812 -124.609375 44.50390625 C-132.66967986 57.43828434 -136.17723778 70.56190709 -136.1875 85.75 C-136.19974609 86.6884375 -136.21199219 87.626875 -136.22460938 88.59375 C-136.2378237 94.97186336 -135.47928569 100.80326483 -134 107 C-133.73960937 108.17046875 -133.47921875 109.3409375 -133.2109375 110.546875 C-127.64140084 131.88809026 -112.71344608 149.89788494 -94.015625 161.3359375 C-80.4208136 168.83773757 -67.04341604 172.59499268 -51.5 172.5625 C-49.67384155 172.55887451 -49.67384155 172.55887451 -47.81079102 172.55517578 C-32.82501891 172.25366705 -18.54204943 168.39756268 -6 160 C-5.41911621 159.61714844 -4.83823242 159.23429688 -4.23974609 158.83984375 C13.87102805 146.76291661 28.01102281 128.3719701 32.75366211 106.83813477 C36.06730505 89.80163256 35.53022835 72.13563347 29 56 C28.62746094 55.07703125 28.25492188 54.1540625 27.87109375 53.203125 C23.20438857 42.99165861 15.83368969 32.01187359 7 25 C6.34 25 5.68 25 5 25 C4.67 24.01 4.34 23.02 4 22 C-3.6978208 15.53263009 -12.54057657 11.21684096 -22 8 C-22.99257813 7.65710938 -23.98515625 7.31421875 -25.0078125 6.9609375 C-32.0569287 4.64456125 -38.5874032 3.25637553 -46 3 C-47.17755859 2.94005859 -47.17755859 2.94005859 -48.37890625 2.87890625 C-66.48298623 2.37187271 -82.83432007 7.21038927 -98 17 Z " fill="#343534" transform="translate(395,95)"/>
<path d="M0 0 C0.98097656 -0.03738281 1.96195312 -0.07476562 2.97265625 -0.11328125 C11.08630429 -0.21182758 11.08630429 -0.21182758 14.796875 2.69140625 C17.125 5.375 17.125 5.375 17.5 8.6875 C17.314375 10.0178125 17.314375 10.0178125 17.125 11.375 C14.25 11.5625 14.25 11.5625 11.125 11.375 C10.465 10.385 9.805 9.395 9.125 8.375 C6.35237745 7.99105333 3.78176472 7.77157752 1 7.6875 C0.24589844 7.65333984 -0.50820313 7.61917969 -1.28515625 7.58398438 C-3.14791201 7.50145722 -5.01143326 7.43655289 -6.875 7.375 C-6.90187279 9.18742052 -6.92133715 10.99995233 -6.9375 12.8125 C-6.94910156 13.82183594 -6.96070313 14.83117187 -6.97265625 15.87109375 C-7.16112676 18.31521067 -7.16112676 18.31521067 -5.875 19.375 C-4.50647444 19.47108915 -3.13358618 19.50695966 -1.76171875 19.515625 C-0.92576172 19.53496094 -0.08980469 19.55429688 0.77148438 19.57421875 C2.53688325 19.6078454 4.30264222 19.62628455 6.06835938 19.62890625 C12.56935126 19.81849772 12.56935126 19.81849772 15.66796875 22.921875 C16.14878906 23.73140625 16.62960937 24.5409375 17.125 25.375 C17.455 25.375 17.785 25.375 18.125 25.375 C18.11339844 24.56417969 18.10179687 23.75335938 18.08984375 22.91796875 C18.03077458 15.66933826 18.31657121 8.57867799 19.125 1.375 C23.3904837 0.34094335 26.49816973 0.375 31.125 0.375 C31.125 6.975 31.125 13.575 31.125 20.375 C38.39480322 20.5452647 38.39480322 20.5452647 45.125 18.375 C45.36201239 15.51622091 45.54719182 12.67616703 45.6875 9.8125 C45.75227539 8.60303711 45.75227539 8.60303711 45.81835938 7.36914062 C45.92475262 5.37131195 46.02540888 3.3731793 46.125 1.375 C48.435 1.375 50.745 1.375 53.125 1.375 C53.125 8.70833333 53.125 16.04166667 53.125 23.375 C54.115 24.365 54.115 24.365 55.125 25.375 C55.4597168 27.97290039 55.4597168 27.97290039 55.57421875 31.22265625 C55.61740234 32.38474609 55.66058594 33.54683594 55.70507812 34.74414062 C55.74052734 35.96294922 55.77597656 37.18175781 55.8125 38.4375 C55.85955078 39.66017578 55.90660156 40.88285156 55.95507812 42.14257812 C56.18069231 48.8037445 56.18069231 48.8037445 56.125 51.375 C55.125 52.375 55.125 52.375 52.40234375 52.47265625 C47.76367188 52.42382812 47.76367188 52.42382812 43.125 52.375 C43.125 45.775 43.125 39.175 43.125 32.375 C39.495 32.375 35.865 32.375 32.125 32.375 C32.13660156 33.23222656 32.14820313 34.08945313 32.16015625 34.97265625 C32.25814448 47.38916431 32.25814448 47.38916431 31.125 52.375 C28.62360398 53.62569801 26.85107309 53.50802467 24.0625 53.5 C22.71478516 53.50386719 22.71478516 53.50386719 21.33984375 53.5078125 C19.125 53.375 19.125 53.375 18.125 52.375 C18.08436168 50.70882885 18.082279 49.04111905 18.125 47.375 C17.67729248 47.86726074 17.22958496 48.35952148 16.76831055 48.86669922 C11.11006601 54.50717958 6.7798341 55.47893261 -1.0625 55.5 C-2.03380859 55.54125 -3.00511719 55.5825 -4.00585938 55.625 C-12.89178119 55.8442551 -12.89178119 55.8442551 -16.875 52.375 C-19.76574937 47.39094937 -21.07172741 42.13571725 -19.875 36.375 C-16.60433122 34.19455415 -15.62081273 34.27642598 -11.875 34.375 C-11.38 33.88 -11.38 33.88 -10.875 33.375 C-11.7825 33.148125 -12.69 32.92125 -13.625 32.6875 C-17.9131147 30.95576137 -19.83489786 28.45520427 -21.875 24.375 C-22.0787399 21.75257644 -22.19856725 19.18790797 -22.25 16.5625 C-22.28738281 15.85029297 -22.32476562 15.13808594 -22.36328125 14.40429688 C-22.43070125 10.35535153 -22.09562188 8.64053676 -19.4765625 5.48828125 C-18.61804688 4.79089844 -17.75953125 4.09351563 -16.875 3.375 C-16.215 2.715 -15.555 2.055 -14.875 1.375 C-10.09386595 -0.22815429 -4.98646633 0.07151386 0 0 Z " fill="#2AA251" transform="translate(322.875,158.625)"/>
<path d="M0 0 C1.00675781 -0.00515625 2.01351563 -0.0103125 3.05078125 -0.015625 C4.61892578 0.00757813 4.61892578 0.00757813 6.21875 0.03125 C7.26417969 0.01578125 8.30960937 0.0003125 9.38671875 -0.015625 C10.39347656 -0.01046875 11.40023438 -0.0053125 12.4375 0 C13.81325195 0.00676758 13.81325195 0.00676758 15.21679688 0.01367188 C18.48322608 0.68939689 19.69430824 1.92504513 21.71875 4.53125 C21.96875 7.78125 21.96875 7.78125 21.71875 10.53125 C18.84375 10.71875 18.84375 10.71875 15.71875 10.53125 C15.05875 9.54125 14.39875 8.55125 13.71875 7.53125 C10.94612745 7.14730333 8.37551472 6.92782752 5.59375 6.84375 C4.83964844 6.80958984 4.08554687 6.77542969 3.30859375 6.74023438 C1.44583799 6.65770722 -0.41768326 6.59280289 -2.28125 6.53125 C-2.30812279 8.34367052 -2.32758715 10.15620233 -2.34375 11.96875 C-2.35535156 12.97808594 -2.36695313 13.98742187 -2.37890625 15.02734375 C-2.56737676 17.47146067 -2.56737676 17.47146067 -1.28125 18.53125 C0.08727556 18.62733915 1.46016382 18.66320966 2.83203125 18.671875 C3.66798828 18.69121094 4.50394531 18.71054688 5.36523438 18.73046875 C7.13063325 18.7640954 8.89639222 18.78253455 10.66210938 18.78515625 C17.00428291 18.97011603 17.00428291 18.97011603 20.28515625 21.546875 C22.18068174 25.49287356 22.38112684 28.70301168 22.34375 33.03125 C22.37597656 33.77761719 22.40820312 34.52398437 22.44140625 35.29296875 C22.4488287 39.48665573 22.02066905 41.14585333 19.359375 44.54296875 C14.95735451 47.62712864 9.99974244 47.07080929 4.84375 46.84375 C3.86921875 46.82119141 2.8946875 46.79863281 1.890625 46.77539062 C-0.50160515 46.71675753 -2.8906115 46.63476153 -5.28125 46.53125 C-5.28125 45.87125 -5.28125 45.21125 -5.28125 44.53125 C-6.27125 44.20125 -7.26125 43.87125 -8.28125 43.53125 C-8.61125 41.22125 -8.94125 38.91125 -9.28125 36.53125 C-6.97125 36.53125 -4.66125 36.53125 -2.28125 36.53125 C-2.28125 37.85125 -2.28125 39.17125 -2.28125 40.53125 C0.36499284 40.39103195 3.01059578 40.24435224 5.65625 40.09375 C6.41099609 40.05443359 7.16574219 40.01511719 7.94335938 39.97460938 C11.63819187 40.09086976 11.63819187 40.09086976 14.71875 38.53125 C14.81726171 36.70009117 14.84847629 34.86505067 14.84375 33.03125 C14.84632813 32.0309375 14.84890625 31.030625 14.8515625 30 C14.99745382 27.58725378 14.99745382 27.58725378 13.71875 26.53125 C12.35067355 26.4230921 10.97766703 26.37554829 9.60546875 26.35546875 C8.76951172 26.33162109 7.93355469 26.30777344 7.07226562 26.28320312 C5.30687993 26.24052347 3.54118267 26.20911673 1.77539062 26.18945312 C-1.98816496 26.0652529 -4.57161241 25.9479871 -7.85546875 24.01953125 C-9.9491762 20.36558154 -9.86563702 17.17324621 -9.78125 13.03125 C-9.79671875 12.27199219 -9.8121875 11.51273438 -9.828125 10.73046875 C-9.82296875 9.99441406 -9.8178125 9.25835937 -9.8125 8.5 C-9.80798828 7.83419922 -9.80347656 7.16839844 -9.79882812 6.48242188 C-8.44491365 1.37841975 -4.87614798 0.02398667 0 0 Z " fill="#233E2D" transform="translate(318.28125,159.46875)"/>
<path d="M0 0 C2.31 0 4.62 0 7 0 C7 6.6 7 13.2 7 20 C14.26980322 20.1702647 14.26980322 20.1702647 21 18 C21.23701239 15.14122091 21.42219182 12.30116703 21.5625 9.4375 C21.60568359 8.63119141 21.64886719 7.82488281 21.69335938 6.99414062 C21.79975262 4.99631195 21.90040888 2.9981793 22 1 C24.31 1 26.62 1 29 1 C29 8.33333333 29 15.66666667 29 23 C29.66 23.66 30.32 24.32 31 25 C31.22705078 27.24658203 31.22705078 27.24658203 31.1953125 30.0078125 C31.18886719 30.99394531 31.18242187 31.98007813 31.17578125 32.99609375 C31.15902344 34.02863281 31.14226562 35.06117188 31.125 36.125 C31.11597656 37.16527344 31.10695313 38.20554688 31.09765625 39.27734375 C31.07403747 41.85179092 31.04110149 44.42578212 31 47 C29.02 47 27.04 47 25 47 C24.97494385 46.42967041 24.9498877 45.85934082 24.92407227 45.27172852 C24.80843451 42.70173843 24.68556376 40.13214473 24.5625 37.5625 C24.52318359 36.66466797 24.48386719 35.76683594 24.44335938 34.84179688 C24.40146484 33.98779297 24.35957031 33.13378906 24.31640625 32.25390625 C24.27974854 31.46314697 24.24309082 30.6723877 24.20532227 29.85766602 C24.19436743 27.98598559 24.19436743 27.98598559 23 27 C20.3013095 26.92674564 17.63497444 26.90777649 14.9375 26.9375 C11.0084375 26.9684375 11.0084375 26.9684375 7 27 C6.67 33.6 6.34 40.2 6 47 C4.02 47 2.04 47 0 47 C0 31.49 0 15.98 0 0 Z " fill="#2D3430" transform="translate(347,159)"/>
<path d="M0 0 C0.9796875 0.00322266 1.959375 0.00644531 2.96875 0.00976562 C3.98453125 0.01814453 5.0003125 0.02652344 6.046875 0.03515625 C7.59375 0.04192383 7.59375 0.04192383 9.171875 0.04882812 C11.71360073 0.06059537 14.25520819 0.07703614 16.796875 0.09765625 C16.796875 0.42765625 16.796875 0.75765625 16.796875 1.09765625 C16.17643311 1.11223877 15.55599121 1.12682129 14.91674805 1.1418457 C12.10532867 1.21632213 9.29509751 1.31298189 6.484375 1.41015625 C5.50791016 1.43271484 4.53144531 1.45527344 3.52539062 1.47851562 C2.11870117 1.53168945 2.11870117 1.53168945 0.68359375 1.5859375 C-0.61251831 1.62521362 -0.61251831 1.62521362 -1.93481445 1.6652832 C-4.67822826 2.18821786 -5.59179885 2.83534789 -7.203125 5.09765625 C-7.5012278 8.02023268 -7.62194617 10.68111408 -7.578125 13.59765625 C-7.58972656 14.36980469 -7.60132813 15.14195312 -7.61328125 15.9375 C-7.6767839 20.12830527 -7.6767839 20.12830527 -5.9519043 23.81420898 C-3.77087341 25.41489018 -2.51220023 25.49194453 0.17578125 25.5390625 C1.43358398 25.57870117 1.43358398 25.57870117 2.71679688 25.61914062 C4.02487305 25.63944336 4.02487305 25.63944336 5.359375 25.66015625 C7.09003561 25.69454024 8.82055873 25.73711587 10.55078125 25.7890625 C11.70042358 25.80755249 11.70042358 25.80755249 12.87329102 25.82641602 C14.796875 26.09765625 14.796875 26.09765625 16.796875 28.09765625 C17.0625 30.62890625 17.0625 30.62890625 17.046875 33.59765625 C17.05460937 35.0671875 17.05460937 35.0671875 17.0625 36.56640625 C16.796875 39.09765625 16.796875 39.09765625 14.796875 41.09765625 C12.05201907 41.2427332 9.41206957 41.28418048 6.671875 41.22265625 C5.91777344 41.21363281 5.16367187 41.20460937 4.38671875 41.1953125 C2.52330246 41.17172495 0.66004907 41.13585344 -1.203125 41.09765625 C-1.203125 39.77765625 -1.203125 38.45765625 -1.203125 37.09765625 C-1.80640625 37.19304687 -2.4096875 37.2884375 -3.03125 37.38671875 C-3.83046875 37.49757812 -4.6296875 37.6084375 -5.453125 37.72265625 C-6.24203125 37.83867187 -7.0309375 37.9546875 -7.84375 38.07421875 C-10.52464959 38.1008502 -11.93006589 37.46357709 -14.203125 36.09765625 C-10.93245622 33.9172104 -9.94893773 33.99908223 -6.203125 34.09765625 C-5.708125 33.60265625 -5.708125 33.60265625 -5.203125 33.09765625 C-6.110625 32.87078125 -7.018125 32.64390625 -7.953125 32.41015625 C-12.2412397 30.67841762 -14.16302286 28.17786052 -16.203125 24.09765625 C-16.4068649 21.47523269 -16.52669225 18.91056422 -16.578125 16.28515625 C-16.61550781 15.57294922 -16.65289062 14.86074219 -16.69140625 14.12695312 C-16.75882625 10.07800778 -16.42374688 8.36319301 -13.8046875 5.2109375 C-12.94617188 4.51355469 -12.08765625 3.81617188 -11.203125 3.09765625 C-10.543125 2.43765625 -9.883125 1.77765625 -9.203125 1.09765625 C-6.11949895 0.03729379 -3.24222806 -0.01885016 0 0 Z " fill="#21DC5C" transform="translate(317.203125,158.90234375)"/>
<path d="M0 0 C0.33 0 0.66 0 1 0 C1 11.88 1 23.76 1 36 C0.67 36 0.34 36 0 36 C-0.02578125 35.34773438 -0.0515625 34.69546875 -0.078125 34.0234375 C-0.13484375 33.14945313 -0.1915625 32.27546875 -0.25 31.375 C-0.29640625 30.51648438 -0.3428125 29.65796875 -0.390625 28.7734375 C-1.23658788 24.92322183 -2.27868924 22.88775179 -5 20 C-8.20838182 19.17224956 -11.32589878 19.20568371 -14.625 19.25 C-16.34640813 19.24236061 -18.06780446 19.22710538 -19.7890625 19.203125 C-20.92915771 19.21327637 -20.92915771 19.21327637 -22.09228516 19.22363281 C-24 19 -24 19 -26 17 C-26.23046875 14.90625 -26.23046875 14.90625 -26.1875 12.5 C-26.18105469 11.7059375 -26.17460937 10.911875 -26.16796875 10.09375 C-26 8 -26 8 -25 6 C-19.72 6 -14.44 6 -9 6 C-8.34 7.32 -7.68 8.64 -7 10 C-5.02 10 -3.04 10 -1 10 C-0.67 6.7 -0.34 3.4 0 0 Z " fill="#2BAE55" transform="translate(341,160)"/>
<path d="M0 0 C2.31 0 4.62 0 7 0 C7 7.33333333 7 14.66666667 7 22 C7.66 22.66 8.32 23.32 9 24 C9.22705078 26.24658203 9.22705078 26.24658203 9.1953125 29.0078125 C9.18886719 29.99394531 9.18242187 30.98007813 9.17578125 31.99609375 C9.15902344 33.02863281 9.14226562 34.06117188 9.125 35.125 C9.11597656 36.16527344 9.10695313 37.20554688 9.09765625 38.27734375 C9.07403747 40.85179092 9.04110149 43.42578212 9 46 C7.02 46 5.04 46 3 46 C2.97494385 45.43490723 2.9498877 44.86981445 2.92407227 44.28759766 C2.80820044 41.73316258 2.68543463 39.1791045 2.5625 36.625 C2.52318359 35.73554688 2.48386719 34.84609375 2.44335938 33.9296875 C2.40146484 33.07890625 2.35957031 32.228125 2.31640625 31.3515625 C2.27974854 30.56604004 2.24309082 29.78051758 2.20532227 28.97119141 C2.109109 26.92476504 2.109109 26.92476504 1 25 C1.66 25 2.32 25 3 25 C2.979375 24.05125 2.95875 23.1025 2.9375 22.125 C3 19 3 19 4 17 C4.66 17 5.32 17 6 17 C6 11.72 6 6.44 6 1 C4.35 1 2.7 1 1 1 C1.02320313 2.20398438 1.04640625 3.40796875 1.0703125 4.6484375 C1.08906863 6.22395215 1.10726899 7.79947348 1.125 9.375 C1.15013672 10.56609375 1.15013672 10.56609375 1.17578125 11.78125 C1.19335473 13.85492015 1.10335168 15.92883241 1 18 C-1 20 -1 20 -4.2578125 20.1953125 C-5.53398437 20.17210937 -6.81015625 20.14890625 -8.125 20.125 C-10.04699219 20.09792969 -10.04699219 20.09792969 -12.0078125 20.0703125 C-13.48894531 20.03550781 -13.48894531 20.03550781 -15 20 C-15 19.67 -15 19.34 -15 19 C-14.07316406 18.93941406 -13.14632813 18.87882812 -12.19140625 18.81640625 C-10.39509766 18.69072266 -10.39509766 18.69072266 -8.5625 18.5625 C-6.77005859 18.44068359 -6.77005859 18.44068359 -4.94140625 18.31640625 C-2.11429756 18.32343886 -2.11429756 18.32343886 -1 17 C-0.76298761 14.14122091 -0.57780818 11.30116703 -0.4375 8.4375 C-0.39431641 7.63119141 -0.35113281 6.82488281 -0.30664062 5.99414062 C-0.20024738 3.99631195 -0.09959112 1.9981793 0 0 Z " fill="#174C28" transform="translate(369,160)"/>
<path d="M0 0 C5.66666667 0 11.33333333 0 17 0 C17 6.27 17 12.54 17 19 C18.98 19 20.96 19 23 19 C23.5625 20.9375 23.5625 20.9375 24 23 C23 24 23 24 20.27734375 24.09765625 C17.18489583 24.06510417 14.09244792 24.03255208 11 24 C11 17.4 11 10.8 11 4 C7.37 4 3.74 4 0 4 C0 2.68 0 1.36 0 0 Z " fill="#1B8C3F" transform="translate(355,187)"/>
<path d="M0 0 C0.66 0 1.32 0 2 0 C2 15.18 2 30.36 2 46 C3.98 46 5.96 46 8 46 C7.99476318 45.39937744 7.98952637 44.79875488 7.98413086 44.17993164 C7.96341986 41.47413162 7.95035875 38.76834823 7.9375 36.0625 C7.92912109 35.11697266 7.92074219 34.17144531 7.91210938 33.19726562 C7.90888672 32.29814453 7.90566406 31.39902344 7.90234375 30.47265625 C7.89710693 29.64000244 7.89187012 28.80734863 7.88647461 27.94946289 C8 26 8 26 9 25 C11.6773138 24.90018786 14.32304175 24.86120125 17 24.875 C17.75023437 24.87113281 18.50046875 24.86726563 19.2734375 24.86328125 C24.87338947 24.87338947 24.87338947 24.87338947 26 26 C26.07313567 28.53049402 26.09247527 31.03304837 26.0625 33.5625 C26.05798828 34.27341797 26.05347656 34.98433594 26.04882812 35.71679688 C26.03700864 37.47790013 26.01907263 39.23896036 26 41 C25.67 41 25.34 41 25 41 C24.505 34.565 24.505 34.565 24 28 C17.07 27.505 17.07 27.505 10 27 C10.01160156 28.14597656 10.02320313 29.29195312 10.03515625 30.47265625 C10.04454242 32.00260252 10.05364173 33.53255058 10.0625 35.0625 C10.07087891 35.81466797 10.07925781 36.56683594 10.08789062 37.34179688 C10.10808341 42.00633118 9.77595959 46.39923173 9 51 C8.505 49.515 8.505 49.515 8 48 C5.36 48 2.72 48 0 48 C0 32.16 0 16.32 0 0 Z " fill="#30914F" transform="translate(345,160)"/>
<path d="M0 0 C0.99 0 1.98 0 3 0 C3 15.84 3 31.68 3 48 C5.64 48 8.28 48 11 48 C11 48.99 11 49.98 11 51 C9.35425434 51.02688151 7.70838587 51.04634123 6.0625 51.0625 C5.14597656 51.07410156 4.22945313 51.08570313 3.28515625 51.09765625 C1 51 1 51 0 50 C-0.15861266 48.22791375 -0.25131286 46.44985433 -0.31640625 44.671875 C-0.35830078 43.56070313 -0.40019531 42.44953125 -0.44335938 41.3046875 C-0.48267578 40.13164062 -0.52199219 38.95859375 -0.5625 37.75 C-0.60568359 36.62335938 -0.64886719 35.49671875 -0.69335938 34.3359375 C-1.10820679 22.82556793 -1.28605737 11.45968982 0 0 Z " fill="#0F7E30" transform="translate(342,160)"/>
<path d="M0 0 C0.33 0 0.66 0 1 0 C1.01417969 1.16917969 1.02835937 2.33835938 1.04296875 3.54296875 C1.08988438 5.09118457 1.13813169 6.63936044 1.1875 8.1875 C1.19330078 8.95642578 1.19910156 9.72535156 1.20507812 10.51757812 C1.35919784 14.5075662 1.73581394 16.59770479 3.97265625 20.00390625 C8.10098795 22.72594173 11.40282101 22.74230607 16.25 22.75 C24.92567568 22.92567568 24.92567568 22.92567568 26 24 C26.07179964 25.51928038 26.08392007 27.04167482 26.0625 28.5625 C26.05347656 29.38878906 26.04445313 30.21507812 26.03515625 31.06640625 C26.02355469 31.70449219 26.01195312 32.34257812 26 33 C25.01 33 24.02 33 23 33 C22.67 31.02 22.34 29.04 22 27 C20.68644531 26.98582031 19.37289063 26.97164062 18.01953125 26.95703125 C16.28381949 26.91012012 14.54814348 26.86187279 12.8125 26.8125 C11.94818359 26.80669922 11.08386719 26.80089844 10.19335938 26.79492188 C5.78334482 26.64285241 3.59068826 26.43337308 -0.05078125 23.76171875 C-3.19770523 19.30305091 -3.16888658 15.28422619 -3.25 9.9375 C-3.27578125 8.91527344 -3.3015625 7.89304688 -3.328125 6.83984375 C-2.95965882 3.65085667 -2.18794126 2.30396845 0 0 Z " fill="#0A5721" transform="translate(306,164)"/>
<path d="M0 0 C0.9796875 0.00322266 1.959375 0.00644531 2.96875 0.00976562 C3.98453125 0.01814453 5.0003125 0.02652344 6.046875 0.03515625 C7.59375 0.04192383 7.59375 0.04192383 9.171875 0.04882812 C11.71360073 0.06059537 14.25520819 0.07703614 16.796875 0.09765625 C16.796875 0.42765625 16.796875 0.75765625 16.796875 1.09765625 C16.17643311 1.11223877 15.55599121 1.12682129 14.91674805 1.1418457 C12.10532867 1.21632213 9.29509751 1.31298189 6.484375 1.41015625 C5.50791016 1.43271484 4.53144531 1.45527344 3.52539062 1.47851562 C2.11870117 1.53168945 2.11870117 1.53168945 0.68359375 1.5859375 C-0.61251831 1.62521362 -0.61251831 1.62521362 -1.93481445 1.6652832 C-4.67822826 2.18821786 -5.59179885 2.83534789 -7.203125 5.09765625 C-7.5012278 8.02023268 -7.62194617 10.68111408 -7.578125 13.59765625 C-7.58972656 14.36980469 -7.60132813 15.14195312 -7.61328125 15.9375 C-7.6767839 20.12830527 -7.6767839 20.12830527 -5.9519043 23.81420898 C-3.77087341 25.41489018 -2.51220023 25.49194453 0.17578125 25.5390625 C1.43358398 25.57870117 1.43358398 25.57870117 2.71679688 25.61914062 C4.02487305 25.63944336 4.02487305 25.63944336 5.359375 25.66015625 C7.09003561 25.69454024 8.82055873 25.73711587 10.55078125 25.7890625 C11.70042358 25.80755249 11.70042358 25.80755249 12.87329102 25.82641602 C14.796875 26.09765625 14.796875 26.09765625 16.796875 28.09765625 C17.0625 30.62890625 17.0625 30.62890625 17.046875 33.59765625 C17.05203125 34.57734375 17.0571875 35.55703125 17.0625 36.56640625 C16.796875 39.09765625 16.796875 39.09765625 14.796875 41.09765625 C12.05201907 41.2427332 9.41206957 41.28418048 6.671875 41.22265625 C5.91777344 41.21363281 5.16367187 41.20460937 4.38671875 41.1953125 C2.52330246 41.17172495 0.66004907 41.13585344 -1.203125 41.09765625 C-1.203125 40.76765625 -1.203125 40.43765625 -1.203125 40.09765625 C4.736875 39.60265625 4.736875 39.60265625 10.796875 39.09765625 C10.796875 36.78765625 10.796875 34.47765625 10.796875 32.09765625 C11.126875 32.09765625 11.456875 32.09765625 11.796875 32.09765625 C11.796875 34.07765625 11.796875 36.05765625 11.796875 38.09765625 C12.786875 38.09765625 13.776875 38.09765625 14.796875 38.09765625 C14.466875 35.12765625 14.136875 32.15765625 13.796875 29.09765625 C12.55550781 29.071875 11.31414062 29.04609375 10.03515625 29.01953125 C8.39319472 28.96323543 6.751269 28.90588842 5.109375 28.84765625 C4.29275391 28.83347656 3.47613281 28.81929687 2.63476562 28.8046875 C-2.53366389 28.59543934 -5.47012747 28.01472664 -9.203125 24.09765625 C-10.788994 20.92591825 -10.58178945 17.46251803 -10.765625 13.97265625 C-10.83040039 12.84150391 -10.83040039 12.84150391 -10.89648438 11.6875 C-11.0026082 9.82443737 -11.10337501 7.96107101 -11.203125 6.09765625 C-12.193125 6.59265625 -12.193125 6.59265625 -13.203125 7.09765625 C-12.05139145 4.62965578 -11.15528935 3.0498206 -9.203125 1.09765625 C-6.11949895 0.03729379 -3.24222806 -0.01885016 0 0 Z " fill="#399957" transform="translate(317.203125,158.90234375)"/>
<path d="M0 0 C3.63 0.33 7.26 0.66 11 1 C11.33 2.32 11.66 3.64 12 5 C17.445 4.505 17.445 4.505 23 4 C23 3.34 23 2.68 23 2 C23.66 2 24.32 2 25 2 C25.84800767 9.692641 26.12152487 17.26291674 26 25 C25.67 25 25.34 25 25 25 C24.97421875 24.34773438 24.9484375 23.69546875 24.921875 23.0234375 C24.86515625 22.14945313 24.8084375 21.27546875 24.75 20.375 C24.70359375 19.51648438 24.6571875 18.65796875 24.609375 17.7734375 C23.76289417 13.92086451 22.72348947 11.88980944 20 9 C16.77188365 8.14871144 13.63669881 8.16035361 10.3125 8.1875 C8.57937928 8.16337598 6.8462974 8.13620072 5.11328125 8.10546875 C3.96533081 8.10776489 3.96533081 8.10776489 2.79418945 8.11010742 C1 8 1 8 0 7 C-0.04092937 4.66702567 -0.04241723 2.33294775 0 0 Z " fill="#2BCF60" transform="translate(316,171)"/>
<path d="M0 0 C0.9075 0.33 1.815 0.66 2.75 1 C6.07045807 2.19605723 6.07045807 2.19605723 10 2 C10.33 3.32 10.66 4.64 11 6 C12.32 6 13.64 6 15 6 C15 6.66 15 7.32 15 8 C15.99 8 16.98 8 18 8 C18.33 8.66 18.66 9.32 19 10 C20.77030457 10.84602467 20.77030457 10.84602467 22.9375 11.5 C23.64777344 11.7371875 24.35804688 11.974375 25.08984375 12.21875 C34.35802296 14.7068518 42.95999684 15.28091913 52.5625 15.1875 C53.82513672 15.18685547 55.08777344 15.18621094 56.38867188 15.18554688 C63.00532501 15.15445033 69.44247869 14.89000018 76 14 C65.08426033 21.27715978 45.82722859 19.69767535 33.47265625 17.27734375 C30.20042945 16.36818737 27.13673006 15.29634508 24 14 C22.98679687 13.63777344 21.97359375 13.27554687 20.9296875 12.90234375 C13.27646099 10.01525702 6.51295747 5.94245709 0 1 C0 0.67 0 0.34 0 0 Z " fill="#29C25B" transform="translate(292,249)"/>
<path d="M0 0 C2.08020449 0.01082671 4.15956607 0.0000036 6.23974609 -0.01269531 C7.55072266 -0.01011719 8.86169922 -0.00753906 10.21240234 -0.00488281 C11.40784668 -0.00262695 12.60329102 -0.00037109 13.83496094 0.00195312 C16.68896484 0.26074219 16.68896484 0.26074219 18.68896484 2.26074219 C18.13136475 2.25026855 17.57376465 2.23979492 16.99926758 2.22900391 C-5.88533893 1.85758451 -27.66463106 3.35609618 -46.51806641 17.97167969 C-48.31103516 19.26074219 -48.31103516 19.26074219 -50.31103516 19.26074219 C-50.64103516 20.25074219 -50.97103516 21.24074219 -51.31103516 22.26074219 C-53.26700699 23.65786493 -55.26539917 24.99854126 -57.31103516 26.26074219 C-57.31103516 24.94074219 -57.31103516 23.62074219 -57.31103516 22.26074219 C-55.99103516 21.93074219 -54.67103516 21.60074219 -53.31103516 21.26074219 C-53.31103516 20.27074219 -53.31103516 19.28074219 -53.31103516 18.26074219 C-52.65103516 18.26074219 -51.99103516 18.26074219 -51.31103516 18.26074219 C-50.98103516 17.60074219 -50.65103516 16.94074219 -50.31103516 16.26074219 C-49.56853516 15.97199219 -48.82603516 15.68324219 -48.06103516 15.38574219 C-45.17495178 14.35919583 -45.17495178 14.35919583 -42.68603516 12.13574219 C-40.31103516 10.26074219 -40.31103516 10.26074219 -37.31103516 10.26074219 C-37.31103516 9.60074219 -37.31103516 8.94074219 -37.31103516 8.26074219 C-34.81309776 7.29673237 -32.31289857 6.33946671 -29.81103516 5.38574219 C-29.11494141 5.11632812 -28.41884766 4.84691406 -27.70166016 4.56933594 C-18.20659521 0.96472795 -10.18902904 -0.06336158 0 0 Z " fill="#164B26" transform="translate(341.31103515625,96.7392578125)"/>
<path d="M0 0 C0.33 0 0.66 0 1 0 C1 5.61 1 11.22 1 17 C3.64 17 6.28 17 9 17 C8.98839844 15.85660156 8.97679687 14.71320313 8.96484375 13.53515625 C8.95546712 12.04427246 8.94636679 10.55338691 8.9375 9.0625 C8.92912109 8.30775391 8.92074219 7.55300781 8.91210938 6.77539062 C8.90347559 4.85005687 8.94775667 2.92464419 9 1 C10 0 10 0 12.5625 -0.0625 C13.7690625 -0.0315625 13.7690625 -0.0315625 15 0 C15.05380578 2.79192205 15.09357669 5.5828141 15.125 8.375 C15.15013672 9.56609375 15.15013672 9.56609375 15.17578125 10.78125 C15.19335473 12.85492015 15.10335168 14.92883241 15 17 C13 19 13 19 9.9609375 19.1953125 C6.640625 19.13020833 3.3203125 19.06510417 0 19 C0 12.73 0 6.46 0 0 Z " fill="#2DB459" transform="translate(354,160)"/>
<path d="M0 0 C0.33 0 0.66 0 1 0 C0.85904936 1.6254308 0.71207913 3.25034051 0.5625 4.875 C0.48128906 5.77992188 0.40007812 6.68484375 0.31640625 7.6171875 C0 10 0 10 -1 12 C-1.26079046 16.22336667 -1.27130397 20.45099703 -1.29516602 24.68139648 C-1.30656266 26.08254189 -1.3268134 27.48364828 -1.35668945 28.88452148 C-1.56334789 38.58361399 -0.3468728 46.80814032 3 56 C3.59517299 57.93389585 4.18045305 59.87090264 4.75 61.8125 C4.99234375 62.62332031 5.2346875 63.43414062 5.484375 64.26953125 C5.65453125 64.84058594 5.8246875 65.41164063 6 66 C6.66 66 7.32 66 8 66 C8.99 68.97 9.98 71.94 11 75 C11.66 75 12.32 75 13 75 C13.33 76.65 13.66 78.3 14 80 C2.23266293 69.2023544 -3.25407786 51.0752679 -4.13891602 35.56494141 C-4.61667299 23.08221977 -3.8234626 11.91418255 0 0 Z " fill="#29C25C" transform="translate(263,154)"/>
<path d="M0 0 C2.31 0 4.62 0 7 0 C7 6.6 7 13.2 7 20 C6.34 20 5.68 20 5 20 C5 14.06 5 8.12 5 2 C4.01 2 3.02 2 2 2 C2 16.19 2 30.38 2 45 C2.99 45 3.98 45 5 45 C5 39.06 5 33.12 5 27 C5.33 27 5.66 27 6 27 C6 33.6 6 40.2 6 47 C4.02 47 2.04 47 0 47 C0 31.49 0 15.98 0 0 Z " fill="#1B512E" transform="translate(347,159)"/>
<path d="M0 0 C1.47146484 0.49113281 1.47146484 0.49113281 2.97265625 0.9921875 C7.16980492 2.19137284 11.10064102 2.22816407 15.4375 2.125 C16.16904297 2.11597656 16.90058594 2.10695312 17.65429688 2.09765625 C19.43634298 2.07436153 21.21821759 2.0385019 23 2 C23.33 2.99 23.66 3.98 24 5 C24.66 5 25.32 5 26 5 C26 9.62 26 14.24 26 19 C25.34 19 24.68 19 24 19 C22.20724134 15.88089144 21.65709282 13.32317572 21.375 9.75 C21.30023438 8.85796875 21.22546875 7.9659375 21.1484375 7.046875 C21.09945313 6.37140625 21.05046875 5.6959375 21 5 C19.74703125 5.01160156 18.4940625 5.02320313 17.203125 5.03515625 C15.55208483 5.04453716 13.90104304 5.05363704 12.25 5.0625 C11.425 5.07087891 10.6 5.07925781 9.75 5.08789062 C8.55117188 5.09272461 8.55117188 5.09272461 7.328125 5.09765625 C6.22839355 5.10551147 6.22839355 5.10551147 5.10644531 5.11352539 C2.9538151 4.9975109 1.0685865 4.59073271 -1 4 C-0.67 2.68 -0.34 1.36 0 0 Z " fill="#2C312F" transform="translate(313,179)"/>
<path d="M0 0 C0.99 0 1.98 0 3 0 C3.2475 0.7425 3.495 1.485 3.75 2.25 C5.14911902 5.32806184 6.38311887 6.86851717 9 9 C11.69827532 9.54743716 11.69827532 9.54743716 14.640625 9.390625 C15.71054687 9.37773437 16.78046875 9.36484375 17.8828125 9.3515625 C19.54957031 9.30128906 19.54957031 9.30128906 21.25 9.25 C22.37664062 9.23195312 23.50328125 9.21390625 24.6640625 9.1953125 C27.44356896 9.14820222 30.2213534 9.08243361 33 9 C30.88864365 11.5016336 29.65971177 12.86028318 26.40625 13.54931641 C23.26922765 13.60571113 20.13760146 13.64350001 17 13.625 C15.3603125 13.67333984 15.3603125 13.67333984 13.6875 13.72265625 C10.6676561 13.72635704 7.95193144 13.63960427 5 13 C1.15263728 9.01920273 0.43567942 5.44599275 0 0 Z " fill="#074919" transform="translate(304,198)"/>
<path d="M0 0 C0.33 0 0.66 0 1 0 C1 7.26 1 14.52 1 22 C1.66 22 2.32 22 3 22 C3 23.32 3 24.64 3 26 C3.99 26.33 4.98 26.66 6 27 C6.125 33.75 6.125 33.75 5 36 C5.4565779 38.92209857 5.85279101 39.85279101 8 42 C8 42.66 8 43.32 8 44 C7.01 44.66 6.02 45.32 5 46 C3.78715124 49.05429073 3.78715124 49.05429073 3 52 C2.34 51.67 1.68 51.34 1 51 C1.16532227 50.44965088 1.33064453 49.89930176 1.50097656 49.33227539 C2.47682625 44.77146714 1.93776216 40.07181157 1.75 35.4375 C1.70939453 33.85678711 1.70939453 33.85678711 1.66796875 32.24414062 C1.62800781 31.23416016 1.58804687 30.22417969 1.546875 29.18359375 C1.51432617 28.26118896 1.48177734 27.33878418 1.44824219 26.38842773 C0.93225111 23.6390047 0.14896135 22.7241084 -2 21 C-1.505 19.515 -1.505 19.515 -1 18 C-0.85507877 16.59335074 -0.75371069 15.1818867 -0.68359375 13.76953125 C-0.64169922 12.96708984 -0.59980469 12.16464844 -0.55664062 11.33789062 C-0.51732422 10.50451172 -0.47800781 9.67113281 -0.4375 8.8125 C-0.39431641 7.96751953 -0.35113281 7.12253906 -0.30664062 6.25195312 C-0.20068482 4.16815567 -0.0998498 2.08409897 0 0 Z " fill="#20E45C" transform="translate(376,160)"/>
<path d="M0 0 C3.92959044 3.30017552 5.46575228 7.02685041 7.125 11.75 C7.37636719 12.42804688 7.62773437 13.10609375 7.88671875 13.8046875 C11.20859955 22.95290375 12.35742257 30.89505107 12.3125 40.625 C12.31121094 41.77403809 12.30992187 42.92307617 12.30859375 44.10693359 C12.21465624 52.4168806 11.4389375 60.0153832 9 68 C8.67 68 8.34 68 8 68 C7.83247207 64.06309365 7.98144773 60.76510899 8.9921875 56.953125 C10.24547209 51.51721197 10.2949695 46.24498117 10.25 40.6875 C10.25773437 39.71232422 10.26546875 38.73714844 10.2734375 37.73242188 C10.27085937 36.79333984 10.26828125 35.85425781 10.265625 34.88671875 C10.26336914 34.04326904 10.26111328 33.19981934 10.25878906 32.33081055 C9.9774373 29.79678668 9.22177968 28.21542743 8 26 C7.42075395 23.4899338 6.99595903 20.97633144 6.5625 18.4375 C5.99498944 15.97828757 5.36462954 14.12275707 4 12 C3.01 11.67 2.02 11.34 1 11 C1.33 8.69 1.66 6.38 2 4 C1.34 4 0.68 4 0 4 C0 2.68 0 1.36 0 0 Z " fill="#29CC61" transform="translate(417,140)"/>
<path d="M0 0 C2.39629455 3.59444183 2.25781331 6.14861652 2.1953125 10.29296875 C2.1924826 10.99899734 2.18965271 11.70502594 2.18673706 12.43244934 C2.17555464 14.68430633 2.1504542 16.93576352 2.125 19.1875 C2.11496767 20.71548904 2.10584226 22.24348433 2.09765625 23.77148438 C2.07562172 27.51447663 2.04110567 31.25717056 2 35 C1.34 34.67 0.68 34.34 0 34 C-0.09796875 34.71285156 -0.1959375 35.42570312 -0.296875 36.16015625 C-1.25833561 42.31847723 -2.53824107 46.80736161 -6 52 C-6.66 52 -7.32 52 -8 52 C-7.71253906 51.16597656 -7.42507813 50.33195312 -7.12890625 49.47265625 C-5.94247942 45.82305954 -4.91593336 42.1466181 -3.9375 38.4375 C-3.76412109 37.79103516 -3.59074219 37.14457031 -3.41210938 36.47851562 C-1.91778909 30.85048177 -0.88454013 25.65166375 -0.68359375 19.82421875 C-0.64169922 18.66728516 -0.59980469 17.51035156 -0.55664062 16.31835938 C-0.51732422 15.12017578 -0.47800781 13.92199219 -0.4375 12.6875 C-0.39431641 11.46998047 -0.35113281 10.25246094 -0.30664062 8.99804688 C-0.20078504 5.9988053 -0.09870274 2.99948409 0 0 Z " fill="#144D26" transform="translate(429,168)"/>
<path d="M0 0 C4.29 0 8.58 0 13 0 C13.33 6.6 13.66 13.2 14 20 C16.31 20.33 18.62 20.66 21 21 C21 21.66 21 22.32 21 23 C17.7 23 14.4 23 11 23 C11 16.4 11 9.8 11 3 C7.37 3 3.74 3 0 3 C0 2.01 0 1.02 0 0 Z " fill="#04581B" transform="translate(356,187)"/>
<path d="M0 0 C3.0997231 0.31138771 4.05868244 1.05968385 6.2890625 3.328125 C7.05992187 4.29234375 7.83078125 5.2565625 8.625 6.25 C9.40101563 7.20390625 10.17703125 8.1578125 10.9765625 9.140625 C12.81597454 11.73994858 13.98208933 14.00099438 15 17 C15.66 17 16.32 17 17 17 C17 17.99 17 18.98 17 20 C17.66 20 18.32 20 19 20 C19.40992188 21.03640625 19.81984375 22.0728125 20.2421875 23.140625 C20.7863659 24.51045339 21.33064187 25.88024302 21.875 27.25 C22.14441406 27.93191406 22.41382813 28.61382812 22.69140625 29.31640625 C24.28369198 33.32334393 24.28369198 33.32334393 26.1875 37.1875 C27.21520472 39.48007208 27.19850104 41.25096447 27.125 43.75 C27.10695313 44.54921875 27.08890625 45.3484375 27.0703125 46.171875 C27.04710937 46.77515625 27.02390625 47.3784375 27 48 C24.53593436 45.53593436 24.41113344 44.00787536 23.6875 40.625 C20.21015226 26.21638585 13.35523542 15.53411888 3.4453125 4.65625 C2 3 2 3 0 0 Z " fill="#145027" transform="translate(402,120)"/>
<path d="M0 0 C6.13200302 1.4523165 11.21909929 4.99386976 16 9 C16 9.66 16 10.32 16 11 C16.59039062 11.26683594 17.18078125 11.53367187 17.7890625 11.80859375 C24.5006649 15.42526996 29.36716048 22.46621171 33 29 C33 29.66 33 30.32 33 31 C31.68 30.34 30.36 29.68 29 29 C29 28.34 29 27.68 29 27 C28.34 26.67 27.68 26.34 27 26 C27 25.01 27 24.02 27 23 C26.34 23 25.68 23 25 23 C24.75121094 22.41347656 24.50242187 21.82695312 24.24609375 21.22265625 C22.82588804 18.68943667 21.28816254 17.29014647 19.0625 15.4375 C15.15983222 12.16217695 15.15983222 12.16217695 13.40234375 10.37890625 C11.93459813 8.82795944 11.93459813 8.82795944 9.5 7.5 C7 6 7 6 5.4375 4.375 C3.70220387 2.71515152 2.33528396 2.40263517 0 2 C0 1.34 0 0.68 0 0 Z " fill="#27CC61" transform="translate(384,109)"/>
<path d="M0 0 C1.32 0 2.64 0 4 0 C4 0.99 4 1.98 4 3 C8.95 3 13.9 3 19 3 C19 4.32 19 5.64 19 7 C13.72 7 8.44 7 3 7 C3 6.34 3 5.68 3 5 C2.01 4.67 1.02 4.34 0 4 C0 2.68 0 1.36 0 0 Z " fill="#2B322E" transform="translate(311,198)"/>
<path d="M0 0 C0.66 0 1.32 0 2 0 C2.92188461 2.76565382 3.11785222 4.38283702 3.09765625 7.23046875 C3.09443359 8.03291016 3.09121094 8.83535156 3.08789062 9.66210938 C3.07532227 10.91217773 3.07532227 10.91217773 3.0625 12.1875 C3.05798828 13.03248047 3.05347656 13.87746094 3.04882812 14.74804688 C3.03705403 16.83206155 3.0191189 18.91603977 3 21 C1.68 20.67 0.36 20.34 -1 20 C-1.02888514 16.85418577 -1.04675923 13.70840531 -1.0625 10.5625 C-1.07087891 9.66466797 -1.07925781 8.76683594 -1.08789062 7.84179688 C-1.09111328 6.98779297 -1.09433594 6.13378906 -1.09765625 5.25390625 C-1.10551147 4.06776733 -1.10551147 4.06776733 -1.11352539 2.85766602 C-1 1 -1 1 0 0 Z " fill="#2C332F" transform="translate(374,184)"/>
<path d="M0 0 C0.99 0 1.98 0 3 0 C2.56967512 4.01636551 2.09530081 7.66049088 1 11.5625 C-0.34981766 16.82420961 -0.45468885 22.09262107 -0.625 27.5 C-0.66367187 28.51320312 -0.70234375 29.52640625 -0.7421875 30.5703125 C-0.83563619 33.04670284 -0.92139873 35.52310151 -1 38 C-1.66 38 -2.32 38 -3 38 C-3.02887512 34.35418313 -3.04675585 30.70839537 -3.0625 27.0625 C-3.07087891 26.02158203 -3.07925781 24.98066406 -3.08789062 23.90820312 C-3.09272461 22.42416992 -3.09272461 22.42416992 -3.09765625 20.91015625 C-3.10289307 19.99371338 -3.10812988 19.07727051 -3.11352539 18.13305664 C-3 16 -3 16 -2 15 C-1.60056824 12.47804033 -1.24920152 9.97036344 -0.9375 7.4375 C-0.84662109 6.72658203 -0.75574219 6.01566406 -0.66210938 5.28320312 C-0.43760497 3.52261597 -0.21831603 1.76136522 0 0 Z " fill="#174826" transform="translate(260,154)"/>
<path d="M0 0 C0.33 0 0.66 0 1 0 C1.33 14.85 1.66 29.7 2 45 C5.96 45.495 5.96 45.495 10 46 C10 46.99 10 47.98 10 49 C6.7 49 3.4 49 0 49 C0 32.83 0 16.66 0 0 Z " fill="#045D1B" transform="translate(343,162)"/>
<path d="M0 0 C0.66 0 1.32 0 2 0 C0.88750772 3.33747685 0.2983396 3.78702332 -2.46484375 5.7421875 C-3.53424194 6.50245239 -3.53424194 6.50245239 -4.62524414 7.27807617 C-5.38828857 7.80506104 -6.15133301 8.3320459 -6.9375 8.875 C-7.71150146 9.41294189 -8.48550293 9.95088379 -9.28295898 10.50512695 C-17.23745416 15.95871088 -24.18740762 20.45485598 -34 21 C-34 20.34 -34 19.68 -34 19 C-32.9275 18.896875 -31.855 18.79375 -30.75 18.6875 C-27.01335718 18.00244882 -25.85304431 17.26275928 -23 15 C-21.68 15 -20.36 15 -19 15 C-19 14.34 -19 13.68 -19 13 C-17.68 13 -16.36 13 -15 13 C-14.979375 12.401875 -14.95875 11.80375 -14.9375 11.1875 C-13.44728139 7.71032324 -10.37874734 7.36335419 -7 6 C-6.34 5.01 -5.68 4.02 -5 3 C-2.375 2.3125 -2.375 2.3125 0 2 C0 1.34 0 0.68 0 0 Z " fill="#27C95F" transform="translate(402,242)"/>
<path d="M0 0 C4.95 0 9.9 0 15 0 C15 0.99 15 1.98 15 3 C16.98 3 18.96 3 21 3 C21 3.99 21 4.98 21 6 C18.03 6 15.06 6 12 6 C11.67 5.01 11.34 4.02 11 3 C7.37 3 3.74 3 0 3 C0 2.01 0 1.02 0 0 Z " fill="#09611F" transform="translate(317,168)"/>
<path d="M0 0 C3.74973906 -0.11622939 7.49901464 -0.1872595 11.25 -0.25 C12.31347656 -0.28351563 13.37695312 -0.31703125 14.47265625 -0.3515625 C15.49746094 -0.36445313 16.52226562 -0.37734375 17.578125 -0.390625 C18.99206543 -0.4220459 18.99206543 -0.4220459 20.43457031 -0.45410156 C23.7819835 0.13841733 24.9508036 1.3373575 27 4 C27.25 7.25 27.25 7.25 27 10 C25.02 10 23.04 10 21 10 C20.34 8.35 19.68 6.7 19 5 C19.99 5 20.98 5 22 5 C22 4.01 22 3.02 22 2 C14.74 1.67 7.48 1.34 0 1 C0 0.67 0 0.34 0 0 Z " fill="#1D4B2C" transform="translate(313,160)"/>
<path d="M0 0 C1.34678825 2.69357651 1.02342589 4.74632961 0.9375 7.75 C0.89413343 12.27638561 1.16732286 15.79562303 3 20 C3.33 20.99 3.66 21.98 4 23 C10.93 23.33 17.86 23.66 25 24 C25 24.33 25 24.66 25 25 C21.77113991 25.11667875 18.54282555 25.18740546 15.3125 25.25 C13.94448242 25.30027344 13.94448242 25.30027344 12.54882812 25.3515625 C8.28660069 25.41355854 5.72146562 25.42186605 1.98046875 23.234375 C-2.16608353 18.55621345 -2.26609046 14.89286141 -2.125 8.75 C-2.11597656 8.00492188 -2.10695313 7.25984375 -2.09765625 6.4921875 C-2.07418358 4.66131941 -2.03831525 2.83061762 -2 1 C-1.34 0.67 -0.68 0.34 0 0 Z " fill="#1BC04B" transform="translate(303,166)"/>
<path d="M0 0 C0.66 0.33 1.32 0.66 2 1 C1.34 1.99 0.68 2.98 0 4 C-0.99 4 -1.98 4 -3 4 C-3 4.66 -3 5.32 -3 6 C-3.55429687 6.26554687 -4.10859375 6.53109375 -4.6796875 6.8046875 C-5.40414063 7.15789062 -6.12859375 7.51109375 -6.875 7.875 C-7.59429687 8.22304688 -8.31359375 8.57109375 -9.0546875 8.9296875 C-11.15135019 9.96557543 -11.15135019 9.96557543 -13 12 C-17.4727279 13.82319407 -21.57181945 14.35312186 -26.375 14.625 C-28.24285156 14.73714844 -28.24285156 14.73714844 -30.1484375 14.8515625 C-31.55996094 14.92503906 -31.55996094 14.92503906 -33 15 C-33 14.67 -33 14.34 -33 14 C-31.82824219 13.70867187 -30.65648437 13.41734375 -29.44921875 13.1171875 C-18.51586637 10.30176194 -9.05143823 6.98489982 0 0 Z " fill="#17532C" transform="translate(393,251)"/>
<path d="M0 0 C1.485 0.99 1.485 0.99 3 2 C5.56663205 2.27597009 5.56663205 2.27597009 8.4375 2.1953125 C10.02691406 2.18564453 10.02691406 2.18564453 11.6484375 2.17578125 C12.75445312 2.15902344 13.86046875 2.14226562 15 2.125 C16.10601562 2.11597656 17.21203125 2.10695312 18.3515625 2.09765625 C20.4023871 2.08019181 22.45318363 2.05863189 24.50390625 2.03173828 C26.33581996 2.00844517 28.1679382 2 30 2 C28.31059406 4.07144285 27.37285858 4.92153287 24.71923828 5.47998047 C21.85443758 5.62836922 18.99185186 5.77169002 16.125 5.875 C15.13113281 5.93429688 14.13726562 5.99359375 13.11328125 6.0546875 C8.86930242 6.23649114 5.77332341 6.31575797 1.8046875 4.6953125 C1.20914062 4.13585937 0.61359375 3.57640625 0 3 C0 2.01 0 1.02 0 0 Z " fill="#1DC34C" transform="translate(306,208)"/>
<path d="M0 0 C0.33 0 0.66 0 1 0 C1.66 7.92 2.32 15.84 3 24 C5.97 24.33 8.94 24.66 12 25 C12 25.33 12 25.66 12 26 C10.35425434 26.02688151 8.70838587 26.04634123 7.0625 26.0625 C6.14597656 26.07410156 5.22945313 26.08570313 4.28515625 26.09765625 C2 26 2 26 1 25 C0.95936168 23.33382885 0.957279 21.66611905 1 20 C0.01 20.99 -0.98 21.98 -2 23 C-4 22 -4 22 -6 19 C-5.19175781 18.49984375 -4.38351562 17.9996875 -3.55078125 17.484375 C-0.70648831 14.7141295 -0.3756508 13.2206252 -0.20507812 9.31640625 C-0.19927734 8.63449219 -0.19347656 7.95257813 -0.1875 7.25 C-0.16236328 6.55261719 -0.13722656 5.85523438 -0.11132812 5.13671875 C-0.05271038 3.42508051 -0.02342947 1.7124814 0 0 Z " fill="#1DA648" transform="translate(340,186)"/>
<path d="M0 0 C2.31 0 4.62 0 7 0 C7 1.32 7 2.64 7 4 C12.28 4 17.56 4 23 4 C23 4.33 23 4.66 23 5 C17.39 5 11.78 5 6 5 C6 4.01 6 3.02 6 2 C4.68 2 3.36 2 2 2 C2.34786708 3.97536745 2.34786708 3.97536745 3 6 C3.66 6.33 4.32 6.66 5 7 C5 7.66 5 8.32 5 9 C11.6 9 18.2 9 25 9 C25 9.33 25 9.66 25 10 C18.07 10 11.14 10 4 10 C4 9.34 4 8.68 4 8 C3.01 7.67 2.02 7.34 1 7 C0.67 4.69 0.34 2.38 0 0 Z " fill="#19512C" transform="translate(309,196)"/>
<path d="M0 0 C0.51304687 0.47050781 1.02609375 0.94101563 1.5546875 1.42578125 C-0.4253125 1.42578125 -2.4053125 1.42578125 -4.4453125 1.42578125 C-4.4453125 0.76578125 -4.4453125 0.10578125 -4.4453125 -0.57421875 C-5.36183594 -0.55681641 -5.36183594 -0.55681641 -6.296875 -0.5390625 C-17.02815887 -0.43326111 -27.73063919 -1.03648288 -38.4453125 -1.57421875 C-38.4453125 -1.90421875 -38.4453125 -2.23421875 -38.4453125 -2.57421875 C-8.88690354 -5.72112161 -8.88690354 -5.72112161 0 0 Z " fill="#2CBE5D" transform="translate(366.4453125,101.57421875)"/>
<path d="M0 0 C3.9290625 -0.0309375 3.9290625 -0.0309375 7.9375 -0.0625 C8.7637085 -0.071604 9.58991699 -0.08070801 10.44116211 -0.09008789 C12.29433759 -0.09723945 14.14749308 -0.0502852 16 0 C17 1 17 1 17.09765625 4.37890625 C17.09098369 5.77347077 17.07902532 7.16801743 17.0625 8.5625 C17.05798828 9.27341797 17.05347656 9.98433594 17.04882812 10.71679688 C17.03700864 12.47790013 17.01907263 14.23896036 17 16 C16.67 16 16.34 16 16 16 C15.67 11.71 15.34 7.42 15 3 C8.07 2.505 8.07 2.505 1 2 C1 7.61 1 13.22 1 19 C0.67 19 0.34 19 0 19 C0 12.73 0 6.46 0 0 Z " fill="#38A95E" transform="translate(354,185)"/>
<path d="M0 0 C0.33 0 0.66 0 1 0 C1.14695312 0.83917969 1.14695312 0.83917969 1.296875 1.6953125 C3.05537906 11.12453256 4.89961795 20.78998331 10 29 C10 29.66 10 30.32 10 31 C7.3468902 30.02719307 6.22223334 29.44446668 4.9375 26.875 C4.628125 25.92625 4.31875 24.9775 4 24 C3.48143748 22.66578186 2.96044583 21.33250621 2.4375 20 C0.50716334 15.03913479 -0.12659407 10.50730799 -0.0625 5.1875 C-0.05347656 4.21167969 -0.04445313 3.23585937 -0.03515625 2.23046875 C-0.02355469 1.49441406 -0.01195312 0.75835937 0 0 Z " fill="#1B4A28" transform="translate(259,192)"/>
<path d="M0 0 C0.9796875 0.00322266 1.959375 0.00644531 2.96875 0.00976562 C3.98453125 0.01814453 5.0003125 0.02652344 6.046875 0.03515625 C7.59375 0.04192383 7.59375 0.04192383 9.171875 0.04882812 C11.71360073 0.06059537 14.25520819 0.07703614 16.796875 0.09765625 C16.796875 0.42765625 16.796875 0.75765625 16.796875 1.09765625 C16.17643311 1.11223877 15.55599121 1.12682129 14.91674805 1.1418457 C12.10532867 1.21632213 9.29509751 1.31298189 6.484375 1.41015625 C5.50791016 1.43271484 4.53144531 1.45527344 3.52539062 1.47851562 C2.11870117 1.53168945 2.11870117 1.53168945 0.68359375 1.5859375 C-0.61251831 1.62521362 -0.61251831 1.62521362 -1.93481445 1.6652832 C-4.67107887 2.18685508 -5.57885299 2.85781619 -7.203125 5.09765625 C-7.57957348 7.7270483 -7.80445587 10.14838097 -7.890625 12.78515625 C-7.92478516 13.48705078 -7.95894531 14.18894531 -7.99414062 14.91210938 C-8.07642447 16.64007012 -8.1414574 18.36883697 -8.203125 20.09765625 C-8.533125 20.09765625 -8.863125 20.09765625 -9.203125 20.09765625 C-9.533125 15.80765625 -9.863125 11.51765625 -10.203125 7.09765625 C-11.193125 7.09765625 -12.183125 7.09765625 -13.203125 7.09765625 C-12.05139145 4.62965578 -11.15528935 3.0498206 -9.203125 1.09765625 C-6.11949895 0.03729379 -3.24222806 -0.01885016 0 0 Z " fill="#21A04B" transform="translate(317.203125,158.90234375)"/>
<path d="M0 0 C1.5778125 0.23009766 1.5778125 0.23009766 3.1875 0.46484375 C9.10455276 1.20447535 15.04502033 1.35445088 21 1.5625 C22.15628906 1.60568359 23.31257813 1.64886719 24.50390625 1.69335938 C27.33583854 1.79867917 30.16784747 1.90081087 33 2 C29.72209966 4.1852669 28.72538499 4.2561264 24.921875 4.265625 C23.92542969 4.26820313 22.92898438 4.27078125 21.90234375 4.2734375 C20.34193359 4.26183594 20.34193359 4.26183594 18.75 4.25 C17.72519531 4.25773437 16.70039063 4.26546875 15.64453125 4.2734375 C10.03790455 4.25900603 5.2918619 3.88354406 0 2 C0 1.34 0 0.68 0 0 Z " fill="#1B502C" transform="translate(322,265)"/>
<path d="M0 0 C0.33 0 0.66 0 1 0 C1 2.31 1 4.62 1 7 C0.41089844 7.08765625 -0.17820312 7.1753125 -0.78515625 7.265625 C-3.59511452 8.19732192 -4.5800626 9.46788292 -6.4375 11.75 C-7.04078125 12.46542969 -7.6440625 13.18085938 -8.265625 13.91796875 C-8.83796875 14.60503906 -9.4103125 15.29210937 -10 16 C-11.61019068 17.89772473 -13.07656991 19.38847749 -15 21 C-17.14453125 20.62109375 -17.14453125 20.62109375 -19 20 C-18.52691406 19.69449219 -18.05382812 19.38898438 -17.56640625 19.07421875 C-10.26986348 14.02495426 -4.89893779 7.34840668 0 0 Z " fill="#19552E" transform="translate(414,230)"/>
<path d="M0 0 C0.77915771 0.00410889 1.55831543 0.00821777 2.36108398 0.01245117 C3.20735352 0.01438477 4.05362305 0.01631836 4.92553711 0.01831055 C5.81047852 0.03055664 6.69541992 0.04280273 7.60717773 0.05541992 C8.49598633 0.05606445 9.38479492 0.05670898 10.30053711 0.05737305 C16.90446676 0.10270895 16.90446676 0.10270895 18.04467773 1.24291992 C18.11647737 2.7622003 18.12859781 4.28459474 18.10717773 5.80541992 C18.0981543 6.63170898 18.08913086 7.45799805 18.07983398 8.30932617 C18.06823242 8.94741211 18.05663086 9.58549805 18.04467773 10.24291992 C17.38467773 10.24291992 16.72467773 10.24291992 16.04467773 10.24291992 C16.04467773 7.60291992 16.04467773 4.96291992 16.04467773 2.24291992 C9.44467773 2.24291992 2.84467773 2.24291992 -3.95532227 2.24291992 C-1.95532227 0.24291992 -1.95532227 0.24291992 0 0 Z " fill="#05501B" transform="translate(313.955322265625,186.757080078125)"/>
<path d="M0 0 C0.33 0 0.66 0 1 0 C1 7.26 1 14.52 1 22 C1.66 22 2.32 22 3 22 C3 29.92 3 37.84 3 46 C2.67 46 2.34 46 2 46 C1.98541748 45.34926514 1.97083496 44.69853027 1.95581055 44.02807617 C1.88135451 41.08061694 1.78468734 38.13429358 1.6875 35.1875 C1.66494141 34.16333984 1.64238281 33.13917969 1.61914062 32.08398438 C1.58369141 31.10107422 1.54824219 30.11816406 1.51171875 29.10546875 C1.48553467 28.19949951 1.45935059 27.29353027 1.43237305 26.36010742 C0.93086954 23.6226515 0.1352228 22.71762393 -2 21 C-1.505 19.515 -1.505 19.515 -1 18 C-0.85507877 16.59335074 -0.75371069 15.1818867 -0.68359375 13.76953125 C-0.64169922 12.96708984 -0.59980469 12.16464844 -0.55664062 11.33789062 C-0.51732422 10.50451172 -0.47800781 9.67113281 -0.4375 8.8125 C-0.39431641 7.96751953 -0.35113281 7.12253906 -0.30664062 6.25195312 C-0.20068482 4.16815567 -0.0998498 2.08409897 0 0 Z " fill="#23B251" transform="translate(376,160)"/>
<path d="M0 0 C0 1.65 0 3.3 0 5 C-3.3 5 -6.6 5 -10 5 C-9.67 3.35 -9.34 1.7 -9 0 C-5.67465243 -1.10844919 -3.37817425 -0.84454356 0 0 Z " fill="#14E957" transform="translate(327,193)"/>
<path d="M0 0 C0.99 0.33 1.98 0.66 3 1 C-0.79037089 6.47035213 -4.75027653 10.89962427 -10 15 C-10 13.35 -10 11.7 -10 10 C-9.01 10.33 -8.02 10.66 -7 11 C-7 9.68 -7 8.36 -7 7 C-4.625 4.25 -4.625 4.25 -2 2 C-1.34 2 -0.68 2 0 2 C0 1.34 0 0.68 0 0 Z " fill="#535454" transform="translate(423,241)"/>
<path d="M0 0 C0.66 0.33 1.32 0.66 2 1 C-1.98513835 7.80743997 -5.67650911 13.22511913 -12 18 C-10.99489725 14.98469174 -10.21620075 13.20348306 -7.875 11 C-5.72660105 9.11928416 -5.72660105 9.11928416 -5.75 6.25 C-5.8325 5.5075 -5.915 4.765 -6 4 C-5.34 4 -4.68 4 -4 4 C-4 3.34 -4 2.68 -4 2 C-2.125 0.9375 -2.125 0.9375 0 0 Z " fill="#23D463" transform="translate(416,224)"/>
<path d="M0 0 C3.43734063 -0.08703823 6.87439837 -0.14040272 10.3125 -0.1875 C11.28896484 -0.21263672 12.26542969 -0.23777344 13.27148438 -0.26367188 C14.20927734 -0.27333984 15.14707031 -0.28300781 16.11328125 -0.29296875 C16.97735596 -0.3086792 17.84143066 -0.32438965 18.73168945 -0.34057617 C21.47681774 0.07159194 22.36151753 0.79626954 24 3 C24 3.66 24 4.32 24 5 C23.34 5 22.68 5 22 5 C21.67 4.34 21.34 3.68 21 3 C19.10314453 3.05220703 19.10314453 3.05220703 17.16796875 3.10546875 C15.50782577 3.13360677 13.84766844 3.16090691 12.1875 3.1875 C11.35412109 3.21263672 10.52074219 3.23777344 9.66210938 3.26367188 C8.45844727 3.27817383 8.45844727 3.27817383 7.23046875 3.29296875 C6.12288208 3.31653442 6.12288208 3.31653442 4.99291992 3.34057617 C2.47769478 2.91074167 1.60558484 1.92536938 0 0 Z " fill="#16502A" transform="translate(315,179)"/>
<path d="M0 0 C4.38889325 0.66498383 7.9811485 2.18757677 12 4 C12 4.99 12 5.98 12 7 C13.65 7.33 15.3 7.66 17 8 C17.33 8.99 17.66 9.98 18 11 C20.00016466 12.20882096 20.00016466 12.20882096 22 13 C22 13.66 22 14.32 22 15 C21.34 15 20.68 15 20 15 C18.66666667 13.66666667 17.33333333 12.33333333 16 11 C11.82635986 7.63347602 7.47910859 5.1073176 2.6015625 2.89453125 C1 2 1 2 0 0 Z " fill="#155427" transform="translate(380,105)"/>
<path d="M0 0 C-0.66 0 -1.32 0 -2 0 C-2 0.66 -2 1.32 -2 2 C-7.27913453 4.08386889 -12.39538469 4.57910004 -18 5 C-18 5.66 -18 6.32 -18 7 C-19.32 6.67 -20.64 6.34 -22 6 C-6.65163735 -2.2426392 -6.65163735 -2.2426392 0 0 Z " fill="#26C058" transform="translate(328,101)"/>
<path d="M0 0 C3.96 0 7.92 0 12 0 C12 0.33 12 0.66 12 1 C10.02 1 8.04 1 6 1 C6 1.99 6 2.98 6 4 C9.3 4 12.6 4 16 4 C16 4.33 16 4.66 16 5 C10.72 5 5.44 5 0 5 C0 3.35 0 1.7 0 0 Z " fill="#203B29" transform="translate(354,180)"/>
<path d="M0 0 C4.05076653 1.59878451 8.05871146 3.28714929 12.0625 5 C13.27035156 5.515625 14.47820312 6.03125 15.72265625 6.5625 C18.19270958 7.64590837 20.60725924 8.75887761 23 10 C18.17639811 10.19294408 14.50353262 9.75747614 10 8 C10 7.34 10 6.68 10 6 C5.545 5.01 5.545 5.01 1 4 C0.67 2.68 0.34 1.36 0 0 Z " fill="#174826" transform="translate(299,255)"/>
<path d="M0 0 C0.33 0 0.66 0 1 0 C1.3578661 9.48345176 0.33850121 17.99224819 -5 26 C-5.66 26 -6.32 26 -7 26 C-6.71253906 25.16597656 -6.42507813 24.33195312 -6.12890625 23.47265625 C-4.94247942 19.82305954 -3.91593336 16.1466181 -2.9375 12.4375 C-2.76412109 11.79103516 -2.59074219 11.14457031 -2.41210938 10.47851562 C-1.48945239 7.00352781 -0.65811949 3.53484801 0 0 Z " fill="#1A5A2E" transform="translate(428,194)"/>
<path d="M0 0 C2.97 0 5.94 0 9 0 C9.33 0.99 9.66 1.98 10 3 C10.66 3.33 11.32 3.66 12 4 C7.71 4 3.42 4 -1 4 C-0.67 2.68 -0.34 1.36 0 0 Z " fill="#1AE85E" transform="translate(318,173)"/>
<path d="M0 0 C0.66 0 1.32 0 2 0 C2 4.95 2 9.9 2 15 C1.01 15 0.02 15 -1 15 C-1.02685412 12.68756208 -1.04632841 10.3750373 -1.0625 8.0625 C-1.07410156 6.77472656 -1.08570313 5.48695313 -1.09765625 4.16015625 C-1 1 -1 1 0 0 Z " fill="#066322" transform="translate(365,161)"/>
<path d="M0 0 C0.33 0 0.66 0 1 0 C1.05391993 1.79133978 1.09275571 3.58313899 1.125 5.375 C1.14820313 6.37273437 1.17140625 7.37046875 1.1953125 8.3984375 C1 11 1 11 -1 13 C-3.74485593 13.14507695 -6.38480543 13.18652423 -9.125 13.125 C-9.87910156 13.11597656 -10.63320313 13.10695312 -11.41015625 13.09765625 C-13.27357254 13.0740687 -15.13682593 13.03819719 -17 13 C-17 12.67 -17 12.34 -17 12 C-11.06 11.505 -11.06 11.505 -5 11 C-5 8.69 -5 6.38 -5 4 C-4.67 4 -4.34 4 -4 4 C-4 5.98 -4 7.96 -4 10 C-2.68 10 -1.36 10 0 10 C0 6.7 0 3.4 0 0 Z " fill="#24984D" transform="translate(333,187)"/>
<path d="M0 0 C-3.21197822 2.86827851 -5.29912414 3.38356518 -9.5703125 3.3984375 C-11.16166016 3.40423828 -11.16166016 3.40423828 -12.78515625 3.41015625 C-14.43837891 3.39275391 -14.43837891 3.39275391 -16.125 3.375 C-17.23488281 3.38660156 -18.34476562 3.39820313 -19.48828125 3.41015625 C-20.54660156 3.40628906 -21.60492188 3.40242187 -22.6953125 3.3984375 C-23.66484863 3.39505371 -24.63438477 3.39166992 -25.63330078 3.38818359 C-26.41431152 3.26008301 -27.19532227 3.13198242 -28 3 C-28.66 2.01 -29.32 1.02 -30 0 C-29.01 0.33 -28.02 0.66 -27 1 C-23.69140709 1.22745382 -20.37811642 1.18515349 -17.0625 1.1875 C-16.15564453 1.19974609 -15.24878906 1.21199219 -14.31445312 1.22460938 C-13.43853516 1.22654297 -12.56261719 1.22847656 -11.66015625 1.23046875 C-10.86230713 1.23457764 -10.06445801 1.23868652 -9.24243164 1.24291992 C-6.94302611 1.12887364 -6.94302611 1.12887364 -4.89624023 -0.0769043 C-3 -1 -3 -1 0 0 Z " fill="#067222" transform="translate(337,208)"/>
<path d="M0 0 C2.79828356 0.38597015 3.8205884 0.80136573 5.75 2.9375 C7 5 7 5 7 7 C7.66 7 8.32 7 9 7 C9 7.66 9 8.32 9 9 C10.32 9 11.64 9 13 9 C12.67 10.32 12.34 11.64 12 13 C3.29577465 5.66901408 3.29577465 5.66901408 0 1 C0 0.67 0 0.34 0 0 Z " fill="#27C25B" transform="translate(279,236)"/>
<path d="M0 0 C1.45823212 -0.0270043 2.91660675 -0.04639787 4.375 -0.0625 C5.18710937 -0.07410156 5.99921875 -0.08570313 6.8359375 -0.09765625 C9 0 9 0 11 1 C11 1.99 11 2.98 11 4 C7.04 3.67 3.08 3.34 -1 3 C-0.67 2.01 -0.34 1.02 0 0 Z " fill="#2E3330" transform="translate(324,161)"/>
<path d="M0 0 C3.10408807 -0.05807043 6.2080364 -0.09361914 9.3125 -0.125 C10.19357422 -0.14175781 11.07464844 -0.15851563 11.98242188 -0.17578125 C12.82998047 -0.18222656 13.67753906 -0.18867188 14.55078125 -0.1953125 C15.72120972 -0.21102295 15.72120972 -0.21102295 16.9152832 -0.22705078 C19 0 19 0 22 2 C22 2.66 22 3.32 22 4 C22.66 4 23.32 4 24 4 C23.67 5.32 23.34 6.64 23 8 C22.38125 7.195625 21.7625 6.39125 21.125 5.5625 C19.25835959 2.96125481 19.25835959 2.96125481 17 2 C14.12089412 1.76725791 11.25853505 1.58027243 8.375 1.4375 C7.57320313 1.39431641 6.77140625 1.35113281 5.9453125 1.30664062 C3.9637489 1.20048543 1.98189729 1.09973145 0 1 C0 0.67 0 0.34 0 0 Z " fill="#2BD562" transform="translate(317,158)"/>
<path d="M0 0 C0.99 0 1.98 0 3 0 C1.35433477 5.68502535 -1.29032784 10.76681636 -4 16 C-5.16161779 13.13421241 -4.9946154 11.98369837 -4.00390625 8.984375 C-3.52824219 7.91703125 -3.05257813 6.8496875 -2.5625 5.75 C-2.08941406 4.67234375 -1.61632812 3.5946875 -1.12890625 2.484375 C-0.75636719 1.66453125 -0.38382812 0.8446875 0 0 Z " fill="#164B23" transform="translate(268,138)"/>
<path d="M0 0 C2.64 0 5.28 0 8 0 C8 0.66 8 1.32 8 2 C10.64 2 13.28 2 16 2 C16.33 2.99 16.66 3.98 17 5 C10.80481527 4.58411954 5.73310689 3.39748106 0 1 C0 0.67 0 0.34 0 0 Z " fill="#18582C" transform="translate(360,99)"/>
<path d="M0 0 C0.33 0 0.66 0 1 0 C1 4.95 1 9.9 1 15 C0.67 15 0.34 15 0 15 C0 11.7 0 8.4 0 5 C-0.66 5 -1.32 5 -2 5 C-2 8.63 -2 12.26 -2 16 C-2.33 16 -2.66 16 -3 16 C-3.08133791 14.08404032 -3.13934367 12.16708068 -3.1875 10.25 C-3.22230469 9.18265625 -3.25710938 8.1153125 -3.29296875 7.015625 C-2.97032505 3.69454586 -2.28826707 2.37472553 0 0 Z " fill="#0B7526" transform="translate(306,164)"/>
<path d="M0 0 C0.99 0 1.98 0 3 0 C3.28875 0.763125 3.5775 1.52625 3.875 2.3125 C4.96269013 5.15029308 4.96269013 5.15029308 7 8 C6.01 8 5.02 8 4 8 C3.67 8.66 3.34 9.32 3 10 C0.96564469 6.27034861 0 4.33094958 0 0 Z " fill="#08581C" transform="translate(304,198)"/>
<path d="M0 0 C0.66 0 1.32 0 2 0 C2.33 4.62 2.66 9.24 3 14 C2.01 14.495 2.01 14.495 1 15 C-0.44207941 12.11584117 -0.09394887 9.58278472 -0.0625 6.375 C-0.05347656 5.18648437 -0.04445313 3.99796875 -0.03515625 2.7734375 C-0.02355469 1.85820312 -0.01195312 0.94296875 0 0 Z " fill="#074B18" transform="translate(304,169)"/>
<path d="M0 0 C0.66 0.33 1.32 0.66 2 1 C-0.40242227 4.17462943 -2.61713276 6.85751741 -6 9 C-6.66 9 -7.32 9 -8 9 C-8.28875 9.639375 -8.5775 10.27875 -8.875 10.9375 C-10 13 -10 13 -12 14 C-10.65365543 9.5937814 -8.80625626 7.56922298 -5 5 C-4.34 5 -3.68 5 -3 5 C-2.690625 4.360625 -2.38125 3.72125 -2.0625 3.0625 C-1 1 -1 1 0 0 Z " fill="#6E6D6D" transform="translate(281,103)"/>
<path d="M0 0 C0.33 0 0.66 0 1 0 C1.01417969 0.85722656 1.02835937 1.71445313 1.04296875 2.59765625 C1.35344794 10.04076537 1.94852142 14.43042105 7 20 C3.34683329 18.75023244 2.21934164 18.32901247 0 15 C-0.14221065 12.39754502 -0.18802932 9.90882316 -0.125 7.3125 C-0.11597656 6.61060547 -0.10695313 5.90871094 -0.09765625 5.18554688 C-0.07413704 3.45688475 -0.03826713 1.72839855 0 0 Z " fill="#3AA85E" transform="translate(307,166)"/>
<path d="M0 0 C0.33 0.66 0.66 1.32 1 2 C0.01 3.485 0.01 3.485 -1 5 C-1.28071552 8.06723147 -1.28071552 8.06723147 -1.1875 11.4375 C-1.18105469 12.57058594 -1.17460937 13.70367187 -1.16796875 14.87109375 C-1.03029419 17.43568261 -0.74922106 19.56053624 0 22 C-0.99 21.34 -1.98 20.68 -3 20 C-3.30344568 17.09941628 -3.41805667 14.45925705 -3.375 11.5625 C-3.39240234 10.39750977 -3.39240234 10.39750977 -3.41015625 9.20898438 C-3.38031936 3.43554665 -3.38031936 3.43554665 -1.47509766 1.25366211 C-0.98831543 0.83995361 -0.5015332 0.42624512 0 0 Z " fill="#174B28" transform="translate(312,161)"/>
<path d="M0 0 C0.309375 0.639375 0.61875 1.27875 0.9375 1.9375 C1.8345163 3.93610821 1.8345163 3.93610821 3 5 C5.32817964 5.36760731 7.6618385 5.70241581 10 6 C10 6.66 10 7.32 10 8 C6.7 8 3.4 8 0 8 C0 5.36 0 2.72 0 0 Z " fill="#044A14" transform="translate(367,202)"/>
<path d="M0 0 C1.65 0 3.3 0 5 0 C5.33 0.66 5.66 1.32 6 2 C4.875 3.5625 4.875 3.5625 3 5 C-0.1875 4.6875 -0.1875 4.6875 -3 4 C-3 3.34 -3 2.68 -3 2 C-2.01 2 -1.02 2 0 2 C0 1.34 0 0.68 0 0 Z " fill="#2B2B2B" transform="translate(305,90)"/>
<path d="M0 0 C0.99 0 1.98 0 3 0 C2.125 7.75 2.125 7.75 1 10 C0.34 10 -0.32 10 -1 10 C-0.67 6.7 -0.34 3.4 0 0 Z " fill="#1E3D25" transform="translate(260,154)"/>
<path d="M0 0 C1.32 0 2.64 0 4 0 C3.8125 1.8125 3.8125 1.8125 3 4 C0.4375 5.75 0.4375 5.75 -2 7 C-2.33 6.01 -2.66 5.02 -3 4 C-1.8125 1.8125 -1.8125 1.8125 0 0 Z " fill="#292C2B" transform="translate(273,112)"/>
<path d="M0 0 C0.66 0.33 1.32 0.66 2 1 C0.6100869 3.77982621 -1.18658353 3.87463341 -4 5 C-4.33 5.66 -4.66 6.32 -5 7 C-8.0625 7.625 -8.0625 7.625 -11 8 C-7.6378363 4.34117479 -4.63949148 1.85579659 0 0 Z " fill="#27C75C" transform="translate(304,108)"/>
<path d="M0 0 C-5.78571429 4.82142857 -5.78571429 4.82142857 -9 6 C-9.99 5.67 -10.98 5.34 -12 5 C-11.34 5 -10.68 5 -10 5 C-9.67 3.68 -9.34 2.36 -9 1 C-5.92677456 0.08941469 -3.19902639 -0.08886184 0 0 Z " fill="#636161" transform="translate(399,267)"/>
<path d="M0 0 C0.66 0.33 1.32 0.66 2 1 C-0.33333333 3.33333333 -2.66666667 5.66666667 -5 8 C-6.32 7.67 -7.64 7.34 -9 7 C-6.03 4.69 -3.06 2.38 0 0 Z " fill="#1A4927" transform="translate(404,243)"/>
<path d="M0 0 C1.10191901 4.40767604 0.58706842 5.8922935 -1 10 C-2.32 9.67 -3.64 9.34 -5 9 C-3.35 6.03 -1.7 3.06 0 0 Z " fill="#1A502B" transform="translate(420,220)"/>
<path d="M0 0 C0.33 0 0.66 0 1 0 C1 6.93 1 13.86 1 21 C0.01 21 -0.98 21 -2 21 C-1.505 19.515 -1.505 19.515 -1 18 C-0.85507877 16.59335074 -0.75371069 15.1818867 -0.68359375 13.76953125 C-0.64169922 12.96708984 -0.59980469 12.16464844 -0.55664062 11.33789062 C-0.51732422 10.50451172 -0.47800781 9.67113281 -0.4375 8.8125 C-0.39431641 7.96751953 -0.35113281 7.12253906 -0.30664062 6.25195312 C-0.20068482 4.16815567 -0.0998498 2.08409897 0 0 Z " fill="#28BE5C" transform="translate(376,160)"/>
<path d="M0 0 C5.66442374 0.36504064 10.00703705 1.0554321 15 4 C13.1875 4.625 13.1875 4.625 11 5 C10.01 4.34 9.02 3.68 8 3 C5.9507906 2.54860541 5.9507906 2.54860541 3.8125 2.375 C2.554375 2.25125 1.29625 2.1275 0 2 C0 1.34 0 0.68 0 0 Z " fill="#26C75C" transform="translate(368,103)"/>
<path d="M0 0 C0.9075 0.33 1.815 0.66 2.75 1 C6.07045807 2.19605723 6.07045807 2.19605723 10 2 C10.33 3.32 10.66 4.64 11 6 C9.72554546 5.57316368 8.45554118 5.13302798 7.1875 4.6875 C6.47980469 4.44386719 5.77210938 4.20023438 5.04296875 3.94921875 C2.85527627 2.93275742 1.59103282 1.79179406 0 0 Z " fill="#20D05C" transform="translate(292,249)"/>
<path d="M0 0 C0.66 0 1.32 0 2 0 C3.78409802 3.06246747 4.22880021 5.22079273 4.125 8.75 C4.10695313 9.54921875 4.08890625 10.3484375 4.0703125 11.171875 C4.03550781 12.07679688 4.03550781 12.07679688 4 13 C1.47519307 10.47519307 1.44261367 8.86176966 0.875 5.375 C0.70742188 4.37210938 0.53984375 3.36921875 0.3671875 2.3359375 C0.24601562 1.56507813 0.12484375 0.79421875 0 0 Z " fill="#185E30" transform="translate(425,155)"/>
<path d="M0 0 C0.66 0 1.32 0 2 0 C2.33 1.98 2.66 3.96 3 6 C0.36 6 -2.28 6 -5 6 C-4.34 5.01 -3.68 4.02 -3 3 C-2.34 3 -1.68 3 -1 3 C-0.67 2.01 -0.34 1.02 0 0 Z " fill="#1EDB57" transform="translate(339,206)"/>
<path d="M0 0 C0 4.0333534 -1.60879918 5.83517538 -4 9 C-4.66 9 -5.32 9 -6 9 C-6 9.66 -6 10.32 -6 11 C-6.66 11 -7.32 11 -8 11 C-6.52670958 5.99081256 -3.72484762 3.48192278 0 0 Z " fill="#29C95C" transform="translate(283,124)"/>
<path d="M0 0 C2.24940295 -0.08119503 4.49964871 -0.13927819 6.75 -0.1875 C8.00296875 -0.22230469 9.2559375 -0.25710937 10.546875 -0.29296875 C14.14109357 0.01197061 15.44725126 0.54394629 18 3 C16.02 3 14.04 3 12 3 C12 2.34 12 1.68 12 1 C8.04 1 4.08 1 0 1 C0 0.67 0 0.34 0 0 Z " fill="#25D761" transform="translate(350,100)"/>
<path d="M0 0 C0.66 0.33 1.32 0.66 2 1 C1.67 2.65 1.34 4.3 1 6 C-1.76264289 6.59732819 -4.16032769 7 -7 7 C-5.47005208 5.76302083 -3.94010417 4.52604167 -2.41015625 3.2890625 C-0.86733563 2.0333609 -0.86733563 2.0333609 0 0 Z " fill="#27D05D" transform="translate(291,116)"/>
<path d="M0 0 C0.33 0 0.66 0 1 0 C1.02696365 1.79158489 1.04637917 3.58328473 1.0625 5.375 C1.07410156 6.37273437 1.08570313 7.37046875 1.09765625 8.3984375 C1 11 1 11 0 13 C-0.99 12.67 -1.98 12.34 -3 12 C-2.01 8.04 -1.02 4.08 0 0 Z " fill="#21BD56" transform="translate(341,160)"/>
<path d="M0 0 C0.99 0.33 1.98 0.66 3 1 C3.33 3.31 3.66 5.62 4 8 C3.01 8.33 2.02 8.66 1 9 C1.33 6.69 1.66 4.38 2 2 C1.01 2.33 0.02 2.66 -1 3 C-0.67 2.01 -0.34 1.02 0 0 Z " fill="#2A2D2A" transform="translate(409,248)"/>
<path d="M0 0 C0.99 1.32 1.98 2.64 3 4 C2.34 4 1.68 4 1 4 C1.33 5.32 1.66 6.64 2 8 C1.34 8 0.68 8 0 8 C-1.6875 6.1875 -1.6875 6.1875 -3 4 C-2.67 3.01 -2.34 2.02 -2 1 C-1.67 1.33 -1.34 1.66 -1 2 C-0.67 1.34 -0.34 0.68 0 0 Z " fill="#0E6A26" transform="translate(307,181)"/>
<path d="M0 0 C1.32 0.33 2.64 0.66 4 1 C1.69 3.64 -0.62 6.28 -3 9 C-3.33 8.01 -3.66 7.02 -4 6 C-2.0625 2.8125 -2.0625 2.8125 0 0 Z " fill="#165027" transform="translate(279,124)"/>
<path d="M0 0 C0.33 0 0.66 0 1 0 C1.3125 2.75 1.3125 2.75 1 6 C-1.5 8.375 -1.5 8.375 -4 10 C-3.52449439 8.51965236 -3.04448784 7.04074979 -2.5625 5.5625 C-2.29566406 4.73878906 -2.02882813 3.91507813 -1.75390625 3.06640625 C-1 1 -1 1 0 0 Z " fill="#28BF59" transform="translate(268,144)"/>
<path d="M0 0 C0.33 0 0.66 0 1 0 C1.36504603 1.58086048 1.71660506 3.16483907 2.0625 4.75 C2.25972656 5.63171875 2.45695312 6.5134375 2.66015625 7.421875 C2.99825872 9.98679028 2.81158635 11.57091639 2 14 C-0.28062828 10.57905758 -0.21925007 9.31812778 -0.125 5.3125 C-0.10695313 4.31863281 -0.08890625 3.32476562 -0.0703125 2.30078125 C-0.04710937 1.54152344 -0.02390625 0.78226563 0 0 Z " fill="#145A2E" transform="translate(259,192)"/>
<path d="M0 0 C2.96404505 2.80804268 5.44499019 5.18315774 7 9 C3.17475764 7.549046 1.80909034 5.61818068 0 2 C0 1.34 0 0.68 0 0 Z " fill="#184E29" transform="translate(273,230)"/>
<path d="M0 0 C0.99 0.33 1.98 0.66 3 1 C3.33 1.99 3.66 2.98 4 4 C2.02 4.66 0.04 5.32 -2 6 C-1.34 4.02 -0.68 2.04 0 0 Z " fill="#555554" transform="translate(381,271)"/>
</svg>
